<svg id="visual" viewBox="0 0 900 600" width="900" height="600" xmlns="http://www.w3.org/2000/svg" xmlns:xlink="http://www.w3.org/1999/xlink" version="1.1"><rect x="0" y="0" width="900" height="600" fill="#001122"></rect><defs><linearGradient id="grad1_0" x1="33.3%" y1="0%" x2="100%" y2="100%"><stop offset="20%" stop-color="#b17f46" stop-opacity="1"></stop><stop offset="80%" stop-color="#b17f46" stop-opacity="1"></stop></linearGradient></defs><defs><linearGradient id="grad1_1" x1="33.3%" y1="0%" x2="100%" y2="100%"><stop offset="20%" stop-color="#b17f46" stop-opacity="1"></stop><stop offset="80%" stop-color="#9b544d" stop-opacity="1"></stop></linearGradient></defs><defs><linearGradient id="grad1_2" x1="33.3%" y1="0%" x2="100%" y2="100%"><stop offset="20%" stop-color="#6c3850" stop-opacity="1"></stop><stop offset="80%" stop-color="#9b544d" stop-opacity="1"></stop></linearGradient></defs><defs><linearGradient id="grad1_3" x1="33.3%" y1="0%" x2="100%" y2="100%"><stop offset="20%" stop-color="#6c3850" stop-opacity="1"></stop><stop offset="80%" stop-color="#332642" stop-opacity="1"></stop></linearGradient></defs><defs><linearGradient id="grad1_4" x1="33.3%" y1="0%" x2="100%" y2="100%"><stop offset="20%" stop-color="#001122" stop-opacity="1"></stop><stop offset="80%" stop-color="#332642" stop-opacity="1"></stop></linearGradient></defs><defs><linearGradient id="grad2_0" x1="0%" y1="0%" x2="66.7%" y2="100%"><stop offset="20%" stop-color="#b17f46" stop-opacity="1"></stop><stop offset="80%" stop-color="#b17f46" stop-opacity="1"></stop></linearGradient></defs><defs><linearGradient id="grad2_1" x1="0%" y1="0%" x2="66.7%" y2="100%"><stop offset="20%" stop-color="#9b544d" stop-opacity="1"></stop><stop offset="80%" stop-color="#b17f46" stop-opacity="1"></stop></linearGradient></defs><defs><linearGradient id="grad2_2" x1="0%" y1="0%" x2="66.7%" y2="100%"><stop offset="20%" stop-color="#9b544d" stop-opacity="1"></stop><stop offset="80%" stop-color="#6c3850" stop-opacity="1"></stop></linearGradient></defs><defs><linearGradient id="grad2_3" x1="0%" y1="0%" x2="66.7%" y2="100%"><stop offset="20%" stop-color="#332642" stop-opacity="1"></stop><stop offset="80%" stop-color="#6c3850" stop-opacity="1"></stop></linearGradient></defs><defs><linearGradient id="grad2_4" x1="0%" y1="0%" x2="66.7%" y2="100%"><stop offset="20%" stop-color="#332642" stop-opacity="1"></stop><stop offset="80%" stop-color="#001122" stop-opacity="1"></stop></linearGradient></defs><g transform="translate(900, 0)"><path d="M0 270.4C-36.6 267.8 -73.1 265.3 -103.5 249.8C-133.9 234.4 -158.1 206.1 -178.9 178.9C-199.7 151.7 -217.2 125.7 -231.9 96.1C-246.6 66.4 -258.5 33.2 -270.4 0L0 0Z" fill="#181c33"></path><path d="M0 216.3C-29.2 214.3 -58.5 212.2 -82.8 199.9C-107.1 187.5 -126.5 164.9 -143.1 143.1C-159.8 121.4 -173.8 100.5 -185.5 76.8C-197.3 53.1 -206.8 26.6 -216.3 0L0 0Z" fill="#502f4c"></path><path d="M0 162.2C-21.9 160.7 -43.9 159.2 -62.1 149.9C-80.3 140.6 -94.8 123.6 -107.3 107.3C-119.8 91 -130.3 75.4 -139.1 57.6C-148 39.9 -155.1 19.9 -162.2 0L0 0Z" fill="#864450"></path><path d="M0 108.2C-14.6 107.1 -29.2 106.1 -41.4 99.9C-53.5 93.8 -63.2 82.4 -71.6 71.6C-79.9 60.7 -86.9 50.3 -92.8 38.4C-98.6 26.6 -103.4 13.3 -108.2 0L0 0Z" fill="#aa6848"></path><path d="M0 54.1C-7.3 53.6 -14.6 53.1 -20.7 50C-26.8 46.9 -31.6 41.2 -35.8 35.8C-39.9 30.3 -43.4 25.1 -46.4 19.2C-49.3 13.3 -51.7 6.6 -54.1 0L0 0Z" fill="#b17f46"></path></g><g transform="translate(0, 600)"><path d="M0 -270.4C30.2 -255.4 60.5 -240.4 95.3 -230C130.1 -219.7 169.5 -213.9 191.2 -191.2C212.9 -168.5 217 -128.8 227.3 -94.1C237.5 -59.4 254 -29.7 270.4 0L0 0Z" fill="#181c33"></path><path d="M0 -216.3C24.2 -204.3 48.4 -192.3 76.2 -184C104.1 -175.7 135.6 -171.1 153 -153C170.4 -134.8 173.6 -103.1 181.8 -75.3C190 -47.6 203.2 -23.8 216.3 0L0 0Z" fill="#502f4c"></path><path d="M0 -162.2C18.1 -153.3 36.3 -144.3 57.2 -138C78.1 -131.8 101.7 -128.4 114.7 -114.7C127.8 -101.1 130.2 -77.3 136.4 -56.5C142.5 -35.7 152.4 -17.8 162.2 0L0 0Z" fill="#864450"></path><path d="M0 -108.2C12.1 -102.2 24.2 -96.2 38.1 -92C52 -87.9 67.8 -85.6 76.5 -76.5C85.2 -67.4 86.8 -51.5 90.9 -37.7C95 -23.8 101.6 -11.9 108.2 0L0 0Z" fill="#aa6848"></path><path d="M0 -54.1C6 -51.1 12.1 -48.1 19.1 -46C26 -43.9 33.9 -42.8 38.2 -38.2C42.6 -33.7 43.4 -25.8 45.5 -18.8C47.5 -11.9 50.8 -5.9 54.1 0L0 0Z" fill="#b17f46"></path></g></svg>