<svg id="visual" viewBox="0 0 900 900" width="900" height="900" xmlns="http://www.w3.org/2000/svg" xmlns:xlink="http://www.w3.org/1999/xlink" version="1.1"><rect x="0" y="0" width="900" height="900" fill="#075669"></rect><path d="M0 170L18.8 170.3C37.7 170.7 75.3 171.3 112.8 162.7C150.3 154 187.7 136 225.2 127.8C262.7 119.7 300.3 121.3 337.8 133.7C375.3 146 412.7 169 450.2 181.3C487.7 193.7 525.3 195.3 562.8 185.3C600.3 175.3 637.7 153.7 675.2 142.3C712.7 131 750.3 130 787.8 142C825.3 154 862.7 179 881.3 191.5L900 204L900 901L881.3 901C862.7 901 825.3 901 787.8 901C750.3 901 712.7 901 675.2 901C637.7 901 600.3 901 562.8 901C525.3 901 487.7 901 450.2 901C412.7 901 375.3 901 337.8 901C300.3 901 262.7 901 225.2 901C187.7 901 150.3 901 112.8 901C75.3 901 37.7 901 18.8 901L0 901Z" fill="#b17f46"></path><path d="M0 271L18.8 280C37.7 289 75.3 307 112.8 307.2C150.3 307.3 187.7 289.7 225.2 279.3C262.7 269 300.3 266 337.8 268.3C375.3 270.7 412.7 278.3 450.2 287.5C487.7 296.7 525.3 307.3 562.8 306.3C600.3 305.3 637.7 292.7 675.2 289.8C712.7 287 750.3 294 787.8 298.5C825.3 303 862.7 305 881.3 306L900 307L900 901L881.3 901C862.7 901 825.3 901 787.8 901C750.3 901 712.7 901 675.2 901C637.7 901 600.3 901 562.8 901C525.3 901 487.7 901 450.2 901C412.7 901 375.3 901 337.8 901C300.3 901 262.7 901 225.2 901C187.7 901 150.3 901 112.8 901C75.3 901 37.7 901 18.8 901L0 901Z" fill="#837f3d"></path><path d="M0 371L18.8 380.2C37.7 389.3 75.3 407.7 112.8 406.2C150.3 404.7 187.7 383.3 225.2 386.5C262.7 389.7 300.3 417.3 337.8 421.2C375.3 425 412.7 405 450.2 397C487.7 389 525.3 393 562.8 402.8C600.3 412.7 637.7 428.3 675.2 433.2C712.7 438 750.3 432 787.8 418.3C825.3 404.7 862.7 383.3 881.3 372.7L900 362L900 901L881.3 901C862.7 901 825.3 901 787.8 901C750.3 901 712.7 901 675.2 901C637.7 901 600.3 901 562.8 901C525.3 901 487.7 901 450.2 901C412.7 901 375.3 901 337.8 901C300.3 901 262.7 901 225.2 901C187.7 901 150.3 901 112.8 901C75.3 901 37.7 901 18.8 901L0 901Z" fill="#567a48"></path><path d="M0 524L18.8 527C37.7 530 75.3 536 112.8 532.3C150.3 528.7 187.7 515.3 225.2 516.2C262.7 517 300.3 532 337.8 531.5C375.3 531 412.7 515 450.2 509.8C487.7 504.7 525.3 510.3 562.8 518.5C600.3 526.7 637.7 537.3 675.2 532.2C712.7 527 750.3 506 787.8 497.8C825.3 489.7 862.7 494.3 881.3 496.7L900 499L900 901L881.3 901C862.7 901 825.3 901 787.8 901C750.3 901 712.7 901 675.2 901C637.7 901 600.3 901 562.8 901C525.3 901 487.7 901 450.2 901C412.7 901 375.3 901 337.8 901C300.3 901 262.7 901 225.2 901C187.7 901 150.3 901 112.8 901C75.3 901 37.7 901 18.8 901L0 901Z" fill="#2a7159"></path><path d="M0 687L18.8 684.8C37.7 682.7 75.3 678.3 112.8 669.8C150.3 661.3 187.7 648.7 225.2 644.2C262.7 639.7 300.3 643.3 337.8 647.3C375.3 651.3 412.7 655.7 450.2 653.3C487.7 651 525.3 642 562.8 639.7C600.3 637.3 637.7 641.7 675.2 641.7C712.7 641.7 750.3 637.3 787.8 631.5C825.3 625.7 862.7 618.3 881.3 614.7L900 611L900 901L881.3 901C862.7 901 825.3 901 787.8 901C750.3 901 712.7 901 675.2 901C637.7 901 600.3 901 562.8 901C525.3 901 487.7 901 450.2 901C412.7 901 375.3 901 337.8 901C300.3 901 262.7 901 225.2 901C187.7 901 150.3 901 112.8 901C75.3 901 37.7 901 18.8 901L0 901Z" fill="#006566"></path><path d="M0 776L18.8 780.3C37.7 784.7 75.3 793.3 112.8 797C150.3 800.7 187.7 799.3 225.2 788.7C262.7 778 300.3 758 337.8 757.7C375.3 757.3 412.7 776.7 450.2 786.7C487.7 796.7 525.3 797.3 562.8 794C600.3 790.7 637.7 783.3 675.2 781.5C712.7 779.7 750.3 783.3 787.8 778C825.3 772.7 862.7 758.3 881.3 751.2L900 744L900 901L881.3 901C862.7 901 825.3 901 787.8 901C750.3 901 712.7 901 675.2 901C637.7 901 600.3 901 562.8 901C525.3 901 487.7 901 450.2 901C412.7 901 375.3 901 337.8 901C300.3 901 262.7 901 225.2 901C187.7 901 150.3 901 112.8 901C75.3 901 37.7 901 18.8 901L0 901Z" fill="#075669"></path></svg>